<svg xmlns="http://www.w3.org/2000/svg" viewBox="0 0 1600 900"><defs><filter id="g"><feTurbulence type="fractalNoise" baseFrequency=".6" numOctaves="4" seed="27"/><feComponentTransfer><feFuncA type="table" tableValues="0 .16"/></feComponentTransfer></filter><linearGradient id="night" x1="0" y1="0" x2="1" y2="1"><stop stop-color="#272521"/><stop offset=".62" stop-color="#11100f"/><stop offset="1" stop-color="#060606"/></linearGradient></defs><rect width="1600" height="900" fill="url(#night)"/><rect y="650" width="1600" height="250" fill="#171512"/><g fill="#3c3933" stroke="#b5aa96" stroke-width="4" opacity=".92"><rect x="120" y="485" width="610" height="150"/><rect x="660" y="520" width="190" height="115"/><circle cx="245" cy="665" r="61" fill="#171512"/><circle cx="580" cy="665" r="61" fill="#171512"/><rect x="735" y="440" width="30" height="80"/><path d="M170 485l72-91h280l125 91z"/></g><g fill="#0b0b0a"><circle cx="895" cy="565" r="24"/><rect x="877" y="588" width="36" height="115"/><circle cx="975" cy="570" r="22"/><rect x="958" y="592" width="34" height="110"/><circle cx="1055" cy="568" r="23"/><rect x="1037" y="590" width="35" height="112"/></g><path d="M0 729H1600M0 758H1600" stroke="#9f9584" stroke-width="6" opacity=".35"/><rect x="770" width="830" height="900" fill="#050505" opacity=".42"/><rect width="1600" height="900" filter="url(#g)"/></svg>