<svg xmlns="http://www.w3.org/2000/svg" viewBox="0 0 1600 900"><defs><filter id="grain"><feTurbulence type="fractalNoise" baseFrequency=".8" numOctaves="3" seed="31"/><feComponentTransfer><feFuncA type="table" tableValues="0 .12"/></feComponentTransfer></filter><pattern id="brick" width="82" height="34" patternUnits="userSpaceOnUse"><path d="M0 0H82M0 34H82M0 17H41M41 17H82" stroke="#8f887a" stroke-width="2" opacity=".38"/></pattern></defs><rect width="1600" height="900" fill="#e8dfcd"/><rect y="245" width="1600" height="655" fill="#3c3933"/><rect y="245" width="1600" height="655" fill="url(#brick)"/><g fill="#171512" stroke="#b7ad99" stroke-width="7"><rect x="145" y="412" width="285" height="488"/><rect x="655" y="385" width="290" height="515"/><rect x="1172" y="416" width="285" height="484"/><path d="M112 412l176-150 176 150zM620 385l180-170 180 170zM1138 416l176-150 176 150z"/></g><g fill="#24221e" stroke="#9d9586" stroke-width="6"><rect x="225" y="550" width="126" height="350"/><rect x="736" y="520" width="130" height="380"/><rect x="1250" y="550" width="130" height="350"/></g><g stroke="#c5baa5" stroke-width="4" opacity=".42"><path d="M240 580v300M270 580v300M300 580v300M330 580v300M752 550v330M784 550v330M816 550v330M848 550v330M1265 580v300M1297 580v300M1329 580v300M1361 580v300"/></g><rect y="0" width="1600" height="250" fill="#eee7d8" opacity=".92"/><rect x="980" y="580" width="620" height="320" fill="#201e1b" opacity=".34"/><rect width="1600" height="900" filter="url(#grain)"/></svg>