<svg xmlns="http://www.w3.org/2000/svg" viewBox="0 0 1600 900"><defs><filter id="grain"><feTurbulence type="fractalNoise" baseFrequency=".7" numOctaves="4" seed="63"/><feComponentTransfer><feFuncA type="table" tableValues="0 .14"/></feComponentTransfer></filter><radialGradient id="glass" cx="40%" cy="35%"><stop stop-color="#e9dfca"/><stop offset=".72" stop-color="#8c8577"/><stop offset="1" stop-color="#2b2925"/></radialGradient><linearGradient id="floor" x1="0" y1="0" x2="0" y2="1"><stop stop-color="#4d4942"/><stop offset="1" stop-color="#171512"/></linearGradient></defs><rect width="1600" height="900" fill="#d9cfbd"/><rect y="445" width="1600" height="455" fill="url(#floor)"/><g opacity=".45" fill="#171512"><rect x="60" y="615" width="230" height="285"/><rect x="335" y="665" width="210" height="235"/><rect x="1085" y="640" width="210" height="260"/><rect x="1320" y="600" width="225" height="300"/></g><g stroke="#aaa18f" stroke-width="8" opacity=".45"><path d="M0 562H1600M0 714H1600"/><path d="M185 445V900M445 445V900M1175 445V900M1430 445V900"/></g><circle cx="800" cy="340" r="258" fill="#1c1a17"/><circle cx="800" cy="340" r="225" fill="url(#glass)" stroke="#706a60" stroke-width="12"/><g stroke="#171512" stroke-width="11"><path d="M800 132v34M800 514v34M592 340h34M974 340h34"/><path d="M800 340L712 248"/><path d="M800 340l127 52"/></g><circle cx="800" cy="340" r="19" fill="#171512"/><rect x="0" y="500" width="1600" height="400" fill="#171512" opacity=".22"/><rect x="0" y="0" width="520" height="360" fill="#ede5d5" opacity=".42"/><rect width="1600" height="900" filter="url(#grain)"/></svg>