<svg xmlns="http://www.w3.org/2000/svg" viewBox="0 0 1600 900"><defs><filter id="grain"><feTurbulence type="fractalNoise" baseFrequency=".62" numOctaves="4" seed="82"/><feComponentTransfer><feFuncA type="table" tableValues="0 .16"/></feComponentTransfer></filter><linearGradient id="sky" x1="0" y1="0" x2="0" y2="1"><stop stop-color="#24221f"/><stop offset="1" stop-color="#0d0c0b"/></linearGradient><linearGradient id="wet" x1="0" y1="0" x2="0" y2="1"><stop stop-color="#5e5950"/><stop offset="1" stop-color="#171512"/></linearGradient><radialGradient id="lamp" cx="50%" cy="50%" r="50%"><stop stop-color="#dfd3bb" stop-opacity=".7"/><stop offset="1" stop-color="#dfd3bb" stop-opacity="0"/></radialGradient></defs><rect width="1600" height="900" fill="url(#sky)"/><rect y="430" width="1600" height="470" fill="url(#wet)"/><g opacity=".32" stroke="#d8cdb7" stroke-width="3"><path d="M0 520H1600M0 612H1600M0 718H1600M0 834H1600"/><path d="M220 430L95 900M470 430L390 900M730 430L700 900M995 430L1040 900M1260 430L1385 900"/></g><g transform="translate(1060 355)" fill="#171512" stroke="#a69c8b" stroke-width="5"><rect x="0" y="80" width="355" height="90"/><circle cx="65" cy="182" r="37"/><circle cx="290" cy="182" r="37"/><path d="M32 80L90 25h215l25 55z"/></g><g><circle cx="280" cy="362" r="175" fill="url(#lamp)"/><path d="M280 410V168" stroke="#171512" stroke-width="18"/><path d="M225 188h110l-20-55h-70z" fill="#d9ceb7" stroke="#171512" stroke-width="9"/></g><g opacity=".28" stroke="#e4d9c3" stroke-width="5"><path d="M80 730l250-90M450 820l320-145M910 790l245-112"/></g><rect x="870" y="0" width="730" height="420" fill="#080807" opacity=".55"/><rect width="1600" height="900" filter="url(#grain)"/></svg>