<svg xmlns="http://www.w3.org/2000/svg" viewBox="0 0 1600 900"><defs><filter id="grain"><feTurbulence type="fractalNoise" baseFrequency=".7" numOctaves="4" seed="53"/><feComponentTransfer><feFuncA type="table" tableValues="0 .13"/></feComponentTransfer></filter><linearGradient id="wall" x1="0" y1="0" x2="1" y2="0"><stop stop-color="#2a2824"/><stop offset=".48" stop-color="#666158"/><stop offset="1" stop-color="#1a1816"/></linearGradient><linearGradient id="floor" x1="0" y1="0" x2="0" y2="1"><stop stop-color="#8b8375"/><stop offset="1" stop-color="#d7cbb5"/></linearGradient></defs><rect width="1600" height="900" fill="url(#wall)"/><polygon points="0,530 1600,530 1380,900 180,900" fill="url(#floor)"/><g fill="#0c0b0a" stroke="#8f8779" stroke-width="5"><rect x="65" y="115" width="315" height="370"/><rect x="1225" y="115" width="315" height="370"/></g><g stroke="#c8bda8" stroke-width="18" opacity=".84"><path d="M105 120v360M165 120v360M225 120v360M285 120v360M345 120v360M1265 120v360M1325 120v360M1385 120v360M1445 120v360M1505 120v360"/></g><g fill="#e3d7c0" opacity=".45"><polygon points="95,485 185,485 665,900 505,900"/><polygon points="220,485 300,485 900,900 750,900"/><polygon points="1320,485 1410,485 930,900 770,900"/><polygon points="1445,485 1530,485 1120,900 970,900"/></g><path d="M800 100v430" stroke="#151310" stroke-width="8" opacity=".5"/><rect x="0" y="0" width="1600" height="900" filter="url(#grain)"/></svg>