<svg xmlns="http://www.w3.org/2000/svg" viewBox="0 0 1600 900"><defs><filter id="grain"><feTurbulence type="fractalNoise" baseFrequency=".72" numOctaves="3" seed="18"/><feComponentTransfer><feFuncA type="table" tableValues="0 .11"/></feComponentTransfer></filter><linearGradient id="sky" x1="0" y1="0" x2="0" y2="1"><stop stop-color="#eee7d9"/><stop offset="1" stop-color="#cfc5b3"/></linearGradient><pattern id="brick" width="46" height="24" patternUnits="userSpaceOnUse"><path d="M0 0H46M0 24H46M0 12H23M23 12H46" stroke="#756f64" stroke-width="1.8" opacity=".32"/></pattern></defs><rect width="1600" height="900" fill="url(#sky)"/><rect y="340" width="1600" height="360" fill="#59544c"/><rect y="340" width="1600" height="360" fill="url(#brick)"/><g fill="#2a2722"><path d="M0 340l120-110 120 110 120-110 120 110 120-110 120 110 120-110 120 110 120-110 120 110 120-110 120 110 120-110 120 110z"/><g fill="#171512"><rect x="72" y="465" width="72" height="235"/><rect x="312" y="465" width="72" height="235"/><rect x="552" y="465" width="72" height="235"/><rect x="792" y="465" width="72" height="235"/><rect x="1032" y="465" width="72" height="235"/><rect x="1272" y="465" width="72" height="235"/></g></g><g fill="#bfb4a0" opacity=".72"><rect x="150" y="430" width="46" height="80"/><rect x="390" y="430" width="46" height="80"/><rect x="630" y="430" width="46" height="80"/><rect x="870" y="430" width="46" height="80"/><rect x="1110" y="430" width="46" height="80"/><rect x="1350" y="430" width="46" height="80"/></g><rect y="700" width="1600" height="200" fill="#aaa291"/><g stroke="#686257" stroke-width="4" opacity=".32"><path d="M0 760H1600M0 820H1600"/></g><rect y="720" width="1600" height="180" fill="#e4dac7" opacity=".28"/><rect width="1600" height="900" filter="url(#grain)"/></svg>