<svg xmlns="http://www.w3.org/2000/svg" viewBox="0 0 1600 900"><defs><filter id="grain"><feTurbulence type="fractalNoise" baseFrequency=".7" numOctaves="4" seed="91"/><feComponentTransfer><feFuncA type="table" tableValues="0 .13"/></feComponentTransfer></filter><radialGradient id="light" cx="50%" cy="12%" r="68%"><stop stop-color="#eee6d7"/><stop offset=".25" stop-color="#b9b09e"/><stop offset=".72" stop-color="#45413b"/><stop offset="1" stop-color="#171512"/></radialGradient></defs><rect width="1600" height="900" fill="url(#light)"/><g fill="none" stroke="#181613" stroke-width="32" stroke-linejoin="miter"><path d="M155 850L800 90l645 760"/><path d="M315 850L800 280l485 570"/><path d="M480 850L800 470l320 380"/><path d="M645 850L800 655l155 195"/></g><g stroke="#aca28f" stroke-width="18"><path d="M215 780h1170M290 690h1020M370 598h860M450 505h700M530 415h540M610 325h380M690 235h220"/></g><g stroke="#2d2a25" stroke-width="9" opacity=".65"><path d="M220 818h1160M298 728h1005M378 637h845M458 545h685M538 454h525M618 364h365M698 274h205"/></g><rect x="615" y="0" width="370" height="145" fill="#eee7d8" opacity=".72"/><rect width="1600" height="900" filter="url(#grain)"/></svg>